<?xml version="1.0" encoding="utf-8"?>
<!-- Generator: Adobe Illustrator 16.0.4, SVG Export Plug-In . SVG Version: 6.00 Build 0)  -->
<!DOCTYPE svg PUBLIC "-//W3C//DTD SVG 1.1//EN" "http://www.w3.org/Graphics/SVG/1.1/DTD/svg11.dtd">
<svg version="1.1" id="Layer_1" xmlns="http://www.w3.org/2000/svg" xmlns:xlink="http://www.w3.org/1999/xlink" x="0px" y="0px"
	 width="287.992px" height="286.486px" viewBox="0 0 287.992 286.486" enable-background="new 0 0 287.992 286.486"
	 xml:space="preserve">
<g>
	<path fill="#4BB949" d="M271.699,143.243c0-70.478-57.137-127.611-127.614-127.611c-70.479,0-127.615,57.136-127.615,127.611
		c0,70.479,57.135,127.61,127.615,127.61C214.562,270.854,271.699,213.722,271.699,143.243z"/>
	<path fill="#FFFFFF" stroke="#FFFFFF" stroke-miterlimit="10" d="M17.77,125.021c0,0,49.386-26.543,75.488-31.103
		c26.299-4.437,24.312-7.854,110.904,0.849c15.329-10.357,39.406-31.457,39.406-31.457s10.283,12.009,12.886,19.4
		c-7.958,6.929-47.111,40.645-70.106,50.897c-22.996,10.254-56.245,26.413-86.392,29.52c0.311-9.32,0.932-17.399,0.932-17.399
		s23.621-4.974,40.712-12.74c17.091-7.771,28.587-13.051,36.979-21.752c-11.187-1.554-43.504-1.816-67.121,1.889
		c-23.621,3.705-66.085,19.05-93.899,48.349C16.745,154.43,15.072,138.595,17.77,125.021z"/>
	<path fill="#FFFFFF" stroke="#FFFFFF" stroke-miterlimit="10" d="M35.047,209.581c24.898-0.188,46.575-4.812,83.247-17.242
		c39.464-14.292,59.662-22.991,91.669-61.836c19.266-8.39,34.803-15.847,34.803-15.847s-8.701,39.153-39.151,60.905
		c-30.454,21.751-60.907,37.288-91.67,45.364c-30.768,8.079-59.157,13.471-59.157,13.471S39.405,220.141,35.047,209.581z"/>
</g>
</svg>
